# xmcd
#
# Track frame offsets: 
#        150
#        7497
#        20481
#        28042
#        89589
#        98550
#        101380
#        105141
#        113093
#        118246
#        120508
#        124428
#        128219
#        139343
#        156308
#        170748
#        173294
#        180316
#        183656
#        194436
#        257596
#        258200
#        298966
#        313197
#        328035
#        336744
#
# Disc length: 4524 seconds
#
# Revision: 0
# Processed by: cddbd v1.5.2PL0 Copyright (c) Steve Scherf et al.
# Submitted via: ExactAudioCopy v0.95b4
#
DISCID=8111aa1a
DTITLE=The Beatles  - AB  Road - Complete Purple Chick Set v1.1 Jan.06
DTITLE=Various Artist - D1  FLAC
DYEAR=1900
DGENRE=
TTITLE0=Roll Announcement
TTITLE1=Dialogue
TTITLE2=Oh! Darling 6.01
TTITLE3=Dialogue
TTITLE4=C'mon Marianne 6.02
TTITLE5=Roll Announcement
TTITLE6=Dialogue
TTITLE7=I've Got A Feeling 6.03
TTITLE8=I've Got A Feeling 6.04
TTITLE9=High School Confidential 6.05
TTITLE10=I've Got A Feeling 6.06
TTITLE11=Hear Me Lord 6.07
TTITLE12=Hear Me Lord 6.08
TTITLE13=For You Blue 6.09
TTITLE14=For You Blue 6.10
TTITLE15=All Things Must Pass 6.11
TTITLE16=Carry That Weight 6.12
TTITLE17=Octopus's Garden - Carry That Weight 6.13
TTITLE18=Carry That Weight 6.14
TTITLE19=The Place Of The King Of The Birds 6.15
TTITLE20=Improvisation 6.16
TTITLE21=Improvisation 6.17
TTITLE22=Across The Universe 6.18
TTITLE23=I Want You 6.19
TTITLE24=Unknown 6.20
TTITLE25=Unknown 6.21
EXTD=
EXTT0=
EXTT1=
EXTT2=
EXTT3=
EXTT4=
EXTT5=
EXTT6=
EXTT7=
EXTT8=
EXTT9=
EXTT10=
EXTT11=
EXTT12=
EXTT13=
EXTT14=
EXTT15=
EXTT16=
EXTT17=
EXTT18=
EXTT19=
EXTT20=
EXTT21=
EXTT22=
EXTT23=
EXTT24=
EXTT25=
PLAYORDER=
